<svg width="65" height="65" fill="none" xmlns="http://www.w3.org/2000/svg"><g filter="url(#filter0_i_37008_313)"><path d="M32.5 65C50.45 65 65 50.45 65 32.5S50.45 0 32.5 0 0 14.55 0 32.5 14.55 65 32.5 65z" fill="url(#paint0_linear_37008_313)"/></g><path d="M32.382 33.892l-12.29-.001c-.13 0-.265.004-.39-.024a.898.898 0 01-.696-.974.9.9 0 01.907-.784c1.07-.006 2.142-.003 3.213-.003l21.593.003c.139 0 .282-.004.416.027.44.104.73.52.683.956a.894.894 0 01-.893.797c-1.211.008-2.421.004-3.632.004h-8.91l-.001-.002zM29.555 45c-1.35-.203-2.735-.279-4.044-.635-2.746-.748-4.316-2.64-4.767-5.438-.166-1.035-.27-2.08-.388-3.121-.073-.63.228-1.043.776-1.11.544-.068.944.285 1.004.832.13 1.18.22 2.37.443 3.533.402 2.102 2.123 3.568 4.258 3.755 1.01.089 2.017.201 3.024.318.734.085 1.073.9.634 1.497-.19.259-.415.333-.94.369zm14.891-14.602c-.015.137-.014.28-.051.41-.087.31-.394.57-.653.575-.442.009-.942-.319-1.044-.733-.073-.294-.076-.606-.116-.91-.125-.956-.185-1.926-.394-2.864-.428-1.92-1.655-3.139-3.574-3.553-1.14-.247-2.317-.323-3.478-.476-.129-.017-.26-.023-.386-.055a.848.848 0 01-.639-.922c.059-.462.416-.816.862-.784 1.531.11 3.07.22 4.539.69 2.351.754 3.833 2.382 4.393 4.764.296 1.259.397 2.563.585 3.847l-.044.011zm-.024 5.482c-.123 1.287-.213 2.7-.605 4.064-.74 2.57-2.92 4.345-5.58 4.605-1.082.106-2.159.262-3.238.395-.382.048-.798-.321-.878-.78-.08-.458.208-.909.662-.97.543-.074 1.095-.088 1.638-.16.901-.12 1.836-.154 2.692-.426 1.857-.588 2.894-1.944 3.166-3.863.144-1.02.252-2.045.355-3.07.06-.593.446-1.006.967-.977.503.03.85.477.822 1.183zM20.33 30.275c.198-1.32.29-2.667.615-3.956.655-2.608 2.404-4.2 5.014-4.786 1.175-.264 2.389-.356 3.586-.516.182-.024.377-.026.553.016.414.098.657.477.617.907-.041.451-.347.75-.787.8-1.08.12-2.164.23-3.241.383-2.276.32-3.854 1.9-4.163 4.162-.149 1.084-.267 2.174-.395 3.261a.868.868 0 01-.887.76.866.866 0 01-.851-.798c-.005-.073-.001-.148-.001-.222l-.06-.01z" fill="#fff"/><defs><linearGradient id="paint0_linear_37008_313" x1="33" y1="-11" x2="33" y2="71" gradientUnits="userSpaceOnUse"><stop stop-color="#46A358" stop-opacity=".4"/><stop offset="1" stop-color="#46A358"/></linearGradient><filter id="filter0_i_37008_313" x="0" y="0" width="65" height="75" filterUnits="userSpaceOnUse" color-interpolation-filters="sRGB"><feFlood flood-opacity="0" result="BackgroundImageFix"/><feBlend in="SourceGraphic" in2="BackgroundImageFix" result="shape"/><feColorMatrix in="SourceAlpha" values="0 0 0 0 0 0 0 0 0 0 0 0 0 0 0 0 0 0 127 0" result="hardAlpha"/><feOffset dy="10"/><feGaussianBlur stdDeviation="10"/><feComposite in2="hardAlpha" operator="arithmetic" k2="-1" k3="1"/><feColorMatrix values="0 0 0 0 0.829167 0 0 0 0 0.829167 0 0 0 0 0.829167 0 0 0 1 0"/><feBlend in2="shape" result="effect1_innerShadow_37008_313"/></filter></defs></svg>