<svg width="77" height="95" fill="none" xmlns="http://www.w3.org/2000/svg"><circle cx="37" cy="58" r="37" fill="#46A358" fill-opacity=".13"/><g clip-path="url(#clip0_36943_309)" fill="#727272"><path d="M28.13 46.357a170.978 170.978 0 0037.893.78c.856-.077.865-1.43 0-1.353a170.978 170.978 0 01-37.894-.78c-.852-.112-.847 1.245 0 1.353zm2.9 45.673c5.435.695 10.905 1.033 16.385.957 4.82-.068 10.51.144 15.03-1.763.785-.334.44-1.641-.359-1.303-4.636 1.956-10.577 1.69-15.537 1.722-5.192.036-10.371-.306-15.523-.965-.852-.108-.848 1.245.004 1.353z"/><path d="M27.605 45.316c-6.273 5.851-9.197 14.575-8.506 23.082.354 4.396 1.591 8.67 3.452 12.655 1.695 3.634 4.193 8.84 7.941 10.73.772.387 1.453-.776.677-1.168-3.488-1.758-5.86-6.821-7.456-10.243-1.857-3.99-3.072-8.322-3.323-12.727-.448-7.939 2.323-15.923 8.17-21.374.637-.59-.319-1.546-.955-.956zm37.943 1.636c6.618 4.17 7.241 13.164 7.08 20.247-.18 7.898-1.153 20.414-10.542 22.722-.838.207-.484 1.51.359 1.303 9.802-2.408 11.21-14.828 11.506-23.187.273-7.821-.417-17.65-7.726-22.253-.735-.46-1.408.708-.677 1.168z"/><path d="M32.577 46.366c-4.936 5.342-7.116 14.264-6.282 21.419.485 4.161 1.794 8.29 2.767 12.353.977 4.07 1.986 8.11 4.201 11.703.458.74 1.62.059 1.162-.68-2.08-3.373-3.05-7.142-3.968-10.96-.888-3.679-1.924-7.362-2.61-11.081-1.3-7.083.735-16.442 5.681-21.798.587-.64-.363-1.596-.95-.956z"/><path d="M39.24 46.93c-3.676 6.51-5.609 13.903-5.51 21.396.05 3.598.56 7.2 1.538 10.662 1.215 4.296 3.062 8.372 3.87 12.786.156.856 1.452.491 1.295-.361-.704-3.864-2.197-7.461-3.385-11.185-1.153-3.616-1.843-7.344-1.96-11.145a41.086 41.086 0 015.314-21.473c.43-.757-.731-1.438-1.162-.68zm3.964 1.293c1.278 7.511-.273 15.036-.143 22.578.058 3.444.825 6.65 1.273 10.04.467 3.521-.332 7.141-.767 10.635-.107.861 1.238.852 1.346 0 .44-3.525 1.233-7.173.766-10.725-.475-3.634-1.278-7.078-1.282-10.775-.009-7.398 1.354-14.742.103-22.109-.148-.856-1.444-.496-1.296.356zm5.045-.626c2.363 6.785 2.65 13.944 2.887 21.063.26 7.731-.125 15.341-1.56 22.951-.161.852 1.134 1.218 1.296.361 1.457-7.727 1.874-15.463 1.61-23.312-.243-7.236-.538-14.53-2.937-21.424-.283-.811-1.583-.46-1.296.36zm5.658.031c.498 1.529 1.574 2.548 2.4 3.891.941 1.533 1.457 3.269 1.735 5.036.605 3.859.318 7.898.31 11.79-.01 4.232.313 8.71-.777 12.843-.96 3.63-3.16 6.758-3.896 10.464-.17.852 1.125 1.213 1.296.36.789-3.967 3.228-7.325 4.089-11.275.883-4.039.623-8.286.632-12.393.01-3.796.238-7.678-.26-11.451-.22-1.668-.596-3.318-1.314-4.842-.798-1.7-2.336-2.994-2.914-4.779-.274-.825-1.574-.473-1.3.356zm6.543-.212c2.672 2.525 3.959 6.555 4.923 10.036 1.004 3.625.668 7.493.444 11.203-.453 7.529-1.718 15.049-5.31 21.757-.412.766.75 1.452 1.162.68 3.83-7.154 5.107-15.197 5.533-23.221.216-4.04.39-7.985-.87-11.875-1.094-3.377-2.3-7.047-4.932-9.54-.628-.59-1.583.365-.95.96zm-27.98 3.382c-.14.356-.292.707-.458 1.055-.21.437.036 1.036.583 1.018.39-.013.7-.189.978-.455.09-.085.18-.176.264-.261.112-.113-.036.067.05-.036-.018.027-.112.018-.027.027-.215-.284-.43-.573-.65-.857-.059.302-.121.604-.18.91-.072.357.103.731.471.835.332.09.758-.113.83-.474.058-.302.12-.604.179-.91.09-.46-.193-.812-.65-.857-.372-.036-.709.163-.973.406-.094.086-.175.176-.27.261l-.089.082c.014-.014.027-.023.04-.037-.067.037-.067.041.01.01-.077.017-.072.022.013 0 .193.338.385.676.583 1.018.215-.45.412-.91.592-1.375.13-.342-.144-.744-.471-.834-.377-.103-.69.131-.825.474zm-3.332 8.092l-.188 1.132c-.05.302.031.6.31.762.246.144.618.117.815-.104l.39-.446c.086-.1.207-.284.31-.339a7.561 7.561 0 01-.34.09c.021-.004.048-.004.07-.008a7.4 7.4 0 00-.34-.09l.054.04c-.112-.194-.224-.388-.332-.586.036.388-.072.82-.117 1.213-.062.563.606.77 1.014.586.529-.248.883-.703 1.072-1.249l-1.126.298-.04-.257c-.22.843 1.08 1.203 1.295.36.1-.383.01-.802-.304-1.06-.404-.328-.947-.211-1.126.298-.08.226-.247.343-.453.442l1.014.586c.067-.604.39-1.677-.435-1.907-.695-.194-1.184.636-1.56 1.073l1.125.658.188-1.131c.058-.36-.094-.73-.47-.834-.32-.086-.767.112-.826.473zm-.578 8.147c.045.532.094 1.064.139 1.591.067.753 1.076.929 1.322.18.135-.414.323-.789.561-1.158l-1.229-.163c.157.393.265.794.323 1.218.068.478.646.559.987.406a.899.899 0 00.399-.388c.04-.072.072-.158.098-.235.014-.04.023-.08.036-.121.023-.068.014-.064-.018.013l-.296.176c.023-.009.05-.013.072-.022h-.359c-.008-.005-.017-.01-.022-.019l-.242-.243c.013.018.022.036.036.054l-.068-.523c-.004.023-.004.045-.008.063-.05.36.085.726.47.834.314.086.78-.108.83-.473.04-.293.018-.56-.197-.78a.88.88 0 00-.704-.239.87.87 0 00-.628.406c-.058.094-.14.225-.144.333-.004.158-.071.046.072-.018.327.136.66.27.987.406a5.245 5.245 0 00-.323-1.217c-.215-.532-.897-.685-1.229-.162-.296.464-.524.96-.695 1.478.44.059.879.122 1.323.18-.045-.531-.094-1.063-.14-1.59-.03-.366-.286-.677-.672-.677-.345.013-.713.325-.681.69zm1.618 9.539c.045.78.435 1.46 1.113 1.858.448.257 1.004-.072 1.013-.587.004-.396.094-.761.246-1.127l-1.125.298c.184.225.381.424.6.609.36.302 1.014.243 1.126-.298.027-.122.059-.225.099-.338l-1.126.297c.04-.022.063.005.059.077.143.338.636.41.919.244.345-.203.386-.587.242-.925a.934.934 0 00-.269-.351c-.417-.33-.928-.208-1.125.297a1.82 1.82 0 00-.099.338l1.125-.297a4.798 4.798 0 01-.6-.609c-.36-.442-.951-.112-1.126.298a4.016 4.016 0 00-.296 1.487c.337-.193.673-.387 1.014-.586-.26-.148-.43-.383-.449-.69-.045-.856-1.39-.865-1.34.005zm2.772 9.274c.156.406.345.78.6 1.136.4.55 1.193.347 1.256-.343.004-.04.076-.54.05-.563-.194.121-.382.243-.575.365.045.063.086.122.135.18.17.217.38.401.655.478.21.054.457.027.64-.09a.74.74 0 00.27-.307l.067-.162c.103-.325-.094-.379-.587-.162.269.82 1.569.469 1.295-.36-.188-.569-.735-.939-1.331-.713a1.071 1.071 0 00-.57.51c-.036.071-.166.382-.12.473.26-.15.515-.302.775-.451-.036-.045-.072-.086-.103-.131-.215-.437-.839-.685-1.287-.523-.632.225-.605.902-.655 1.46.417-.112.834-.225 1.256-.342a3.732 3.732 0 01-.467-.811c-.322-.803-1.623-.456-1.304.356z"/><path d="M40.137 50.982c-.484.366-.888.798-1.152 1.353-.345.721.457 1.29 1.058.82a1270.194 1270.194 0 01.623-.486l.095-.077c.112-.081.053-.068-.175.036a7.53 7.53 0 00-.341-.09l.04.027-.242-.244c-.013-.058-.031-.112-.045-.17.005-.064.005-.073-.009-.019-.031.023-.04.176-.04.198a.903.903 0 00.094.6.803.803 0 00.467.374c.08.023.183.032.269.032.08 0 .152-.014.224-.04.094-.028.063-.037-.099-.028l-.296-.176.04.04-.174-.297.013.045.067-.523c-.009.014-.013.028-.022.041-.408.766.753 1.452 1.161.68.175-.324.135-.689-.139-.946a.813.813 0 00-.533-.22c-.112-.005-.242.067-.341.058.112.031.224.063.34.09a.545.545 0 00-.049-.036l.243.243a13.59 13.59 0 01-.027-.054c.031.113.062.226.09.343-.01-.086.004-.04.035-.167.036-.158.04-.33.005-.491a.796.796 0 00-.642-.618c-.336-.063-.565.113-.82.311-.256.198-.511.401-.767.6l1.058.82c.162-.333.368-.64.668-.865.292-.217.44-.587.242-.925-.165-.284-.623-.455-.919-.239zm-2.632 7.611c-.112.54-.22 1.081-.332 1.627-.139.69.606 1.087 1.126.658a1.72 1.72 0 00.386-.455c.067-.117.148-.356.183-.415l-.242.243a.534.534 0 00.063-.045 7.4 7.4 0 01-.34.09c.026-.004.053-.004.08-.008a7.53 7.53 0 00-.34-.09c-.108-.05-.113-.226-.082.004a.96.96 0 00.04.162.981.981 0 00.346.51c.157.117.34.18.538.175a.816.816 0 00.34-.09.483.483 0 00.153-.094c.117-.082.086-.077-.09.004-.111-.031-.224-.063-.34-.09.018.009.022.018.036.054.287.816 1.587.464 1.296-.36-.126-.357-.31-.686-.655-.862a.895.895 0 00-.6-.076c-.198.045-.315.176-.485.257a7.04 7.04 0 01.34-.09h-.071c.112.031.224.063.34.09.122.212.158.243.108.094l-.027-.175a1.258 1.258 0 00-.143-.339.878.878 0 00-.749-.428.846.846 0 00-.726.446c-.121.226-.112.361-.319.532l1.126.659c.112-.541.22-1.082.332-1.623.179-.857-1.117-1.218-1.292-.365zm-.52 6.911a13.895 13.895 0 00-.251 2.191c-.018.514.583.839 1.013.586.198-.117.341-.275.449-.478.04-.076.157-.252.134-.32-.004-.009-.045.05-.027.04-.112.032-.224.064-.34.09-.01.005-.023.005-.032.01l-.242-.244c.076.1.067.09.076.194.05.555.713.924 1.148.478.05-.054.099-.104.153-.153a.297.297 0 01-.287-.018l-.175-.298a.588.588 0 00.031.081c.126.343.458.578.83.474.327-.09.596-.487.47-.834-.35-.956-1.367-.834-1.972-.208l1.148.478c-.054-.653-.377-1.361-1.148-1.312a.97.97 0 00-.758.47c-.058.094-.099.202-.144.306-.049.112-.134.153.005.072l1.013.586c.018-.618.085-1.226.202-1.835.166-.847-1.13-1.208-1.296-.356zm.668 7.723c.153.604.337 1.194.552 1.776.175.473.735.671 1.125.297.17-.166.287-.36.345-.595a1.75 1.75 0 00.045-.302c.014-.288-.018-.05.01-.063a7.561 7.561 0 01-.341.09c.03 0 .058-.004.09-.004a7.561 7.561 0 00-.342-.09c-.09-.041-.062-.082.01.045.035.063.067.117.111.175.14.18.31.303.538.334a.793.793 0 00.566-.14.892.892 0 00.242-.243c.026-.054.053-.108.076-.163.09-.175.013-.13-.229.14h-.359c-.053-.045-.103-.094-.157-.14a7.612 7.612 0 01-.09-.342v.081c-.013.87 1.333.87 1.346 0 .009-.455-.305-.811-.74-.902a.818.818 0 00-.659.14.907.907 0 00-.233.24c-.014.026-.027.058-.045.085-.117.225-.085.22.099-.014.112-.031.224-.063.34-.09-.022.005-.044.005-.067.01.112.03.224.062.341.09.193.094.094.062.022-.064a1.006 1.006 0 00-.206-.266.888.888 0 00-.91-.176c-.256.09-.449.289-.579.519a1.31 1.31 0 00-.134.406c-.014.063 0 .243-.04.283l1.125.298a17.694 17.694 0 01-.552-1.776c-.22-.839-1.515-.483-1.3.36zm.677 6.46c.242.717.552 1.407.933 2.056.273.464.879.41 1.161 0 .077-.113.13-.23.166-.361.005-.04.01-.077.018-.117.072-.262.009-.253-.197.031h-.359c-.188-.058-.103-.045-.004.063.071.077.161.158.255.212.193.109.422.15.641.131.503-.036.848-.37 1.014-.825.3-.816-1-1.172-1.296-.36.085-.226.296-.1.26-.208-.027-.077-.184-.18-.256-.22a.882.882 0 00-.721-.073.921.921 0 00-.507.442c-.099.18-.072.45-.18.604h1.162a9.156 9.156 0 01-.798-1.731c-.27-.82-1.57-.47-1.292.356zm1.771 7.713c.005.375.059.75.175 1.1a.682.682 0 00.56.483c.247.032.557-.08.669-.324.076-.163.152-.325.229-.483.035-.076.071-.149.103-.225.018-.036.036-.077.053-.113.036-.067.036-.067 0 0l-.295.176c.013-.005.031-.014.044-.018h-.358l-.072-.032-.242-.243c-.067-.113-.005-.018.022.058.023.073.05.14.072.212.05.14.099.284.144.424.116.347.461.573.829.473.332-.09.587-.486.47-.834-.192-.558-.353-1.478-1.134-1.374-.605.08-.807.82-1.03 1.298l1.228.162a2.429 2.429 0 01-.13-.744c-.005-.351-.305-.694-.673-.676-.354.018-.668.302-.664.68zm6.179.821l-.107.924c-.036.289.233.582.493.654.305.086.587-.063.758-.311.12-.176.242-.347.363-.523.054-.081.112-.158.166-.239l.067-.095c.099-.135.085-.126-.036.027a7.53 7.53 0 01-.34.09h.062a7.53 7.53 0 00-.34-.09c-.135-.234-.18-.28-.135-.135.013.054.022.113.036.167.022.113.045.22.072.334.049.234.071.509.192.72.117.2.31.37.534.434.345.094.628-.081.83-.352.22-.293.044-.757-.243-.924-.345-.203-.7-.05-.919.243a.253.253 0 01-.027.036c.193-.112.386-.225.583-.333-.013 0-.027.004-.04.004.112.032.224.063.34.09.117.06.189.388.122.055-.018-.095-.04-.185-.059-.28-.036-.167-.067-.334-.103-.5-.08-.352-.291-.695-.659-.798-.408-.113-.73.121-.96.428-.228.311-.444.631-.663.947.417.112.834.225 1.255.342l.108-.924c.04-.365-.34-.676-.673-.676-.399.009-.632.325-.677.685zm.646-12.348a9.078 9.078 0 00-.233 2.2c.009.636.941.965 1.255.343.135-.27.27-.537.404-.807.099-.199.17-.447.35-.587l-.296.176c0-.004 0-.009.004-.013a58.21 58.21 0 00-.65-.496l.256.96c.107.401.623.645.986.406.063-.04.126-.086.188-.126.718-.478.045-1.65-.677-1.168-.063.04-.125.086-.188.126.327.135.66.27.986.406l-.255-.96a.683.683 0 00-.65-.496c-.947.018-1.27 1.2-1.619 1.902.417.113.834.226 1.255.343a7.73 7.73 0 01.184-1.844c.189-.852-1.107-1.213-1.3-.365zm-1.282-10.117c.031.532.058 1.06.09 1.592.035.667.887.924 1.255.342l.78-1.24h-1.161c.094.163.152.312.161.501a.68.68 0 001.148.478c.34-.307.56-.676.726-1.105-.327.136-.659.27-.986.406 0 .01 0 .018-.005.023l-.175-.298c.014.027.023.059.036.086.14.338.444.577.83.473.314-.086.61-.491.47-.834a1.338 1.338 0 00-.479-.622c-.381-.284-.848.04-.987.406-.08.207-.22.36-.38.51.38.157.766.32 1.147.477a2.543 2.543 0 00-.345-1.181c-.265-.447-.892-.428-1.161 0l-.78 1.24c.416.112.833.225 1.255.342-.031-.532-.058-1.06-.09-1.591-.053-.87-1.399-.875-1.35-.005zm.363-8.94c-.04.343-.058.685-.05 1.028.014.469.579.902 1.014.586.224-.162.363-.347.44-.613.017-.063.035-.135.044-.198.01-.059.045-.063-.004-.018-.233.216-.48.527-.852.076.04.05.027.045 0-.013.031.067.054.144.085.212a1.1 1.1 0 00.224.31c.278.276.69.33 1.027.136.318-.18.421-.613.242-.924a.68.68 0 00-.92-.244c-.013.01-.03.018-.044.027.112-.031.224-.063.34-.09.037-.004.36.176.333.185a1.11 1.11 0 00-.04-.104 1.185 1.185 0 00-.216-.36c-.22-.23-.56-.343-.87-.244-.291.09-.484.325-.578.609-.023.063-.032.126-.05.194-.009.031-.018.058-.022.09-.018.059-.018.059.004 0a.329.329 0 01.175-.198c.337.193.673.387 1.014.586a7.177 7.177 0 01.049-1.028c.045-.352-.34-.69-.673-.677-.399.019-.623.298-.672.672zm-.413-6.934a1.867 1.867 0 00.202 1.443c.314.532 1.036.37 1.229-.162.071-.199-.036.121.031-.081.027-.077.05-.041-.018-.01-.206.109-.484.037-.547-.234.085.356.484.568.83.473.358-.099.556-.473.47-.834-.12-.513-.677-.789-1.174-.671-.49.121-.727.55-.888.992l1.228-.163c-.067-.117-.076-.108-.09-.248.01.072.005-.018.005-.04.01-.199-.027.08.018-.113.085-.343-.112-.748-.47-.834-.346-.072-.732.113-.826.482zm-19.227-1.596a6.626 6.626 0 00-.534.826c-.264.473.184 1.212.758.991.206-.076.408-.157.615-.234-.274-.158-.552-.316-.83-.473a.663.663 0 01.05.275c-.005.342.313.707.672.676a2.51 2.51 0 00.924-.253c.327-.157.412-.63.242-.924-.197-.338-.592-.401-.92-.243a.971.971 0 01-.246.067l.673.677a1.798 1.798 0 00-.1-.636c-.111-.32-.465-.609-.829-.473-.206.076-.408.157-.614.234l.758.992a7.19 7.19 0 01.534-.825c.22-.293.044-.758-.243-.924-.336-.194-.69-.046-.91.247zm-3.807 7.593c-.255.563-.475 1.14-.654 1.735-.112.37.134.713.47.834.287.104.597.04.848-.121.107-.073.18-.145.26-.24.31-.369-.117.109-.368-.202l-.175-.298c-.035-.126-.008.135-.008.131.013.104.04.212.094.306.103.176.291.32.484.375.363.099.83-.04.986-.41.144-.334.099-.726-.242-.925-.282-.167-.775-.094-.919.244.014-.018.027-.036.045-.05l.296-.176.403.122.175.298c.036.126.01-.185 0-.217a.852.852 0 00-.188-.356.915.915 0 00-.623-.293.955.955 0 00-.601.18 1.085 1.085 0 00-.224.208c-.278.324-.086.05.12.121l.471.834c.144-.482.314-.95.52-1.41.149-.334.095-.727-.242-.925-.296-.176-.78-.099-.928.235zm-1.488 7.975a6.032 6.032 0 00.009 2.304c.076.383.488.527.83.473a.933.933 0 00.52-.293c.057-.063.111-.14.16-.212a.914.914 0 00.072-.126c.04-.063.027-.059-.049.004h-.359l.095.027-.296-.175c-.05-.104-.054-.1-.01.013l.068.162c.072.136.17.244.296.325.3.203.574.19.897.04.331-.148.412-.635.242-.924-.198-.342-.588-.392-.92-.243l-.071.031.52-.067c-.027-.01-.054-.014-.08-.023l.295.176c.027.09.027.1.005.032a1.357 1.357 0 00-.081-.203.88.88 0 00-.148-.217.854.854 0 00-.722-.27.988.988 0 00-.614.311 1.396 1.396 0 00-.207.275c-.013.027-.03.054-.044.081-.085.126-.063.113.071-.036.274.158.552.316.83.473a4.176 4.176 0 01-.01-1.582c.068-.36-.098-.73-.47-.834-.332-.086-.762.117-.83.478zm.959 9.76c.189.379.372.758.56 1.136.166.334.62.41.92.244.242-.135.408-.352.484-.622.036-.122.058-.275.045-.402-.014-.144.05-.103-.027-.036l-.296.176c-.009.005-.018.005-.027.01a7.4 7.4 0 00-.34-.091c.233.135.345.352.685.352.404 0 .494-.24.736-.478l-.296.176c-.13-.082-.26-.163-.39-.248.054.36.506.559.83.473.385-.108.524-.469.47-.834-.063-.406-.444-.708-.838-.748-.462-.045-.763.207-.982.586l.242-.244c-.023.018-.05.036-.072.054.112-.031.224-.063.34-.09h-.07a7.4 7.4 0 00.34.09c-.08-.045-.292-.275-.471-.324a.841.841 0 00-.735.14c-.189.14-.319.347-.386.567-.045.14.005.424-.067.523l.242-.243c-.027.014-.054.032-.085.045l.919.244c-.188-.38-.372-.758-.56-1.136-.395-.785-1.557-.1-1.17.68zm4.152 10.045c-.022.581.579.91 1.085.753a.923.923 0 00.534-.465l.054-.112c.098-.158 0-.113-.305.144-.14-.018-.076-.018.022.036a.683.683 0 00.92-.243c.179-.312.076-.749-.243-.925-.331-.185-.708-.293-1.076-.14a.97.97 0 00-.453.397.72.72 0 00-.08.167l-.027.054c.233-.261.475-.284.73-.068l.175.298.014.108c.013-.356-.318-.694-.673-.676a.682.682 0 00-.677.672zm24.855-33.501c.08.405.22.784.394 1.158.166.347.62.392.92.244a.965.965 0 00.399-.406c.027-.05.044-.104.071-.158.144-.31-.004.158-.35.122a7.53 7.53 0 00-.34-.09c-.076-.036.112.085.112.085a.97.97 0 00.749.185c.403-.067.64-.329.793-.694.14-.338-.152-.744-.47-.834-.386-.108-.687.135-.83.473.157-.293.354-.356.587-.19a.312.312 0 00-.058-.049.944.944 0 00-.363-.207.828.828 0 00-.637.09.919.919 0 00-.345.406c-.018.04-.04.086-.058.13-.05.145-.023.01.058-.026l.92.243a3.6 3.6 0 01-.26-.834c-.068-.36-.499-.564-.83-.473-.364.094-.53.464-.462.825zm1.56 7.74c.085.428.175.857.26 1.285.144.708 1.09.577 1.296 0 .067-.194.184-.32.332-.455l-1.058-.136c.116.271.237.546.354.816.134.312.655.447.92.244.16-.122.29-.23.394-.41.036-.063.076-.14.098-.212a.325.325 0 01.04-.09c.108-.199-.098-.262-.623-.19-.049.361.346.676.673.676.404 0 .623-.31.673-.676.076-.563-.449-1.073-.991-1.073a.969.969 0 00-.704.316 1.32 1.32 0 00-.202.297c-.036.073-.175.298-.036.194l.92.244-.355-.816c-.184-.424-.771-.397-1.058-.136-.323.293-.53.645-.677 1.05h1.296c-.086-.427-.175-.856-.26-1.284-.166-.857-1.467-.496-1.292.356zm1.179 10.342c-.04.338 0 .686.09 1.01.112.392.623.658.987.406.237-.167.38-.347.484-.618.027-.067.05-.14.072-.212.04-.144 0 .05-.117.068h-.359c-.112-.045-.183-.113-.201-.212-.014-.045-.01-.031.018.04.013.041.026.086.04.127.076.207.184.374.354.514.368.297.785.248 1.143-.032.287-.225.234-.721 0-.955-.282-.285-.663-.226-.95 0-.014.013-.032.022-.045.036l.296-.176-.054.013h.359c.08.014.197.262.148.113a1.533 1.533 0 00-.144-.343.915.915 0 00-.874-.446c-.314.032-.57.23-.74.492a1.564 1.564 0 00-.161.365c-.014.04-.04.099-.045.14-.005.058-.014-.014.098-.09l.987.405a1.583 1.583 0 01-.045-.65c.04-.364-.34-.675-.672-.675-.39.004-.624.315-.669.68zm-.372 7.962c-.036.442 0 .875.067 1.312.081.51.803.64 1.126.297a6.78 6.78 0 01.363-.356c.112-.099.229-.198.319-.261-.328-.135-.66-.27-.987-.406.04.117.04-.018.027.108.009-.094-.054.086-.009.01-.175.32-.076.739.242.923.31.18.745.082.92-.243.192-.356.255-.77.12-1.159-.13-.37-.614-.68-.986-.405a7.25 7.25 0 00-.95.83c.376.098.748.198 1.125.297a4.504 4.504 0 01-.023-.956c.027-.352-.327-.69-.672-.676-.395.027-.65.306-.682.685zm-.43 8.832a4.56 4.56 0 00-.53 1.33c-.08.356.108.73.471.834.377.104.7-.126.83-.473.04-.113.175-.357.247-.451h-.95a.358.358 0 01-.073-.334c-.058.36.095.726.471.834.323.09.767-.108.83-.473.063-.374-.005-.704-.274-.983-.233-.243-.726-.284-.95 0a3.73 3.73 0 00-.597 1.046c.43.122.866.239 1.296.36a3.18 3.18 0 01.395-1.005.687.687 0 00-.242-.924.68.68 0 00-.924.239zm4.923 2.7c-.278.366-.408.816-.43 1.272-.014.266.18.523.412.617.265.108.52.045.736-.14.331-.284.663-.572.995-.856l-1.058-.135c-.027-.04-.014-.1-.01-.145.005-.031.077-.14.005-.027-.193.312-.067.744.242.925a.68.68 0 00.92-.244c.228-.365.224-.83.004-1.199-.237-.397-.726-.42-1.058-.135-.332.284-.664.572-.995.856l1.147.478c.01-.203-.035.09.01-.104.017-.067.035-.14.058-.207-.036.095.053-.095.053-.1a1.43 1.43 0 01.121-.175c.22-.293.045-.757-.242-.924-.336-.203-.686-.05-.91.243zm2.484-8.854a9.055 9.055 0 00-.152 1.56c-.01.663.928.933 1.255.343.202-.37.44-.69.736-.988-.274.036-.543.072-.816.104l-.045-.032-.175-.297c-.014-.04.031-.167-.014-.023-.031.09-.049.235-.053.32a.969.969 0 00.179.604.8.8 0 00.628.325c.134 0 .291-.04.408-.104l.063-.036c.107-.067.076-.072-.095-.013a7.53 7.53 0 00-.34-.09c-.18-.09-.193-.194-.175-.325-.05.36.09.726.47.834.314.086.776-.108.83-.473.054-.388.036-.78-.26-1.073a.834.834 0 00-.578-.226.987.987 0 00-.408.113c-.032.018-.18.081-.095.063h.36c-.019-.004-.041-.013-.06-.018l.297.176c.045.374.085.469.125.284a.712.712 0 00.036-.14c.023-.104.032-.212.023-.32-.018-.297-.17-.582-.444-.712-.27-.136-.592-.118-.816.103-.373.375-.69.798-.947 1.258.417.113.834.226 1.256.343a7.19 7.19 0 01.108-1.2c.062-.36-.099-.73-.471-.833-.332-.09-.767.112-.83.473zm.906-9.31a2.177 2.177 0 00-.05 1.47c.207.658 1.077.627 1.297 0 .112-.325.313-.582.569-.807l-1.148-.478c.014.23.031.46.045.686.027.396.287.63.673.676.215.027.412-.045.591-.163a.943.943 0 00.202-.175c.023-.032.05-.059.072-.086.08-.086.013-.068-.206.054a7.53 7.53 0 00-.341-.09c-.036-.04-.076-.081-.112-.122a7.612 7.612 0 01-.09-.342c0 .018 0 .036.005.054.031-.113.062-.226.09-.343-.01.014-.019.032-.028.045-.457.744.709 1.425 1.162.68.269-.436.045-1.005-.426-1.176a.855.855 0 00-.727.054c-.094.05-.175.122-.25.199-.019.018-.032.04-.05.058-.09.09-.054.09.108 0l.672.677c-.013-.23-.031-.46-.045-.686-.04-.6-.7-.874-1.148-.478-.43.384-.726.861-.914 1.403h1.296c-.086-.276-.059-.487.049-.749.139-.338-.153-.744-.47-.834-.387-.108-.687.135-.826.473zm-.56-11.852c.035.378.076.762.112 1.14.031.334.228.623.583.663.322.04.654-.153.74-.482.071-.289.17-.55.313-.807h-1.161c.067.126.135.252.197.374.247.464.901.41 1.162 0 .022-.036.053-.068.053-.081.072-.063.023-.059-.139.013a.307.307 0 01-.215.036l-.242-.243-.013-.054c.26.825 1.56.473 1.295-.36a.944.944 0 00-.95-.677c-.435.013-.74.338-.955.68h1.161c-.067-.126-.134-.252-.197-.374-.233-.441-.924-.437-1.162 0a5.042 5.042 0 00-.448 1.132c.44.059.879.122 1.323.18-.036-.378-.076-.762-.112-1.14-.036-.365-.283-.677-.673-.677-.336 0-.708.312-.672.677zm-3.332-7.561c.17.433.381.794.677 1.155.34.414.982.144 1.126-.298.103-.325.148-.676.116-1.014-.417.112-.834.225-1.255.342.13.253.313.483.533.663.283.23.677.275.95 0 .238-.239.283-.726 0-.956a1.407 1.407 0 01-.219-.212c-.067-.085.04.068-.018-.027a2.51 2.51 0 01-.085-.149c-.14-.27-.484-.392-.762-.315-.265.072-.52.36-.494.654.027.284.018.396-.067.653l1.126-.297a1.722 1.722 0 01-.184-.27l-.094-.167c-.01-.014-.081-.185-.059-.118-.134-.338-.448-.577-.83-.473-.313.086-.596.487-.461.83zm6.794-.522c.053.284.16.559.309.811.152.257.47.392.757.311.305-.086.467-.352.493-.654l.095-.95c-.337.193-.673.387-1.014.585l.62.465c.29.216.752.05.918-.244.202-.343.05-.708-.242-.924-.206-.153-.412-.311-.619-.464-.188-.14-.488-.113-.677 0-.22.13-.31.338-.331.586l-.095.95c.417-.112.834-.225 1.256-.342a1.173 1.173 0 01-.175-.487c-.067-.36-.498-.563-.83-.473-.367.1-.529.469-.466.83zm2.985 8.115c.063.374.153.734.274 1.095a.684.684 0 00.986.406.924.924 0 00.467-.627c.031-.122.036-.252.045-.383 0-.045.004-.09.009-.135-.01.189-.135.31-.382.374a7.561 7.561 0 00-.34-.09c.529.261.941.437 1.547.302.843-.19.488-1.497-.36-1.303-.21.05-.33-.077-.51-.167a.879.879 0 00-.946.086c-.207.162-.3.387-.337.644-.013.1-.018.194-.027.293-.008.086-.004.09.005.023-.045.153.004.09.152-.18l.987.405a8.326 8.326 0 01-.274-1.095c-.063-.36-.502-.564-.83-.474-.376.095-.528.465-.466.825zm1.565 9.782c-.044.343-.094.686-.139 1.028-.04.302.027.6.31.762.233.14.636.127.816-.103.098-.131.197-.24.354-.293-.282-.217-.57-.433-.852-.654.009.27.014.54.022.811a.683.683 0 00.852.654c.216-.05.395-.158.565-.293l.166-.13c-.013-.019-.228-.005-.278-.06l-.174-.297c.008.023.013.045.022.068.282.816 1.583.464 1.296-.36-.157-.447-.516-.7-.991-.686a1.176 1.176 0 00-.56.167c-.135.08-.26.248-.413.284.282.216.57.432.852.653-.01-.27-.014-.54-.023-.811-.009-.415-.426-.798-.852-.654-.372.13-.704.33-.946.645.377.22.75.437 1.126.658.044-.343.094-.685.139-1.028.049-.36-.085-.726-.471-.834-.305-.085-.771.108-.82.474zm-1.932 11.199c-.094.383-.189.767-.278 1.15-.085.351.107.74.47.834a.98.98 0 00.897-.19c.211-.17.287-.437.48-.604l-.296.176c.032-.013.063-.027.099-.04h-.359c.032.004.063.013.099.018l-.404-.312a.873.873 0 01.01.05c.03.077.062.153.098.23.09.149.229.252.381.32a.84.84 0 00.516.045.562.562 0 00.17-.045c.265-.085.21-.113-.161-.076l-.243-.244.032.045a7.123 7.123 0 01-.09-.342c0 .017 0 .04-.004.058-.04.87 1.305.87 1.345 0 .018-.37-.233-.68-.579-.789a.966.966 0 00-.506-.013c-.058.013-.287.058-.22.067.112.032.224.063.34.09-.022-.013-.04-.031-.062-.045l.242.244c-.031-.063-.103-.302-.215-.42a.827.827 0 00-.749-.193 1.062 1.062 0 00-.502.32 1.583 1.583 0 00-.188.266c-.018.031-.032.063-.05.09-.125.171-.031.167.283-.018.157.28.314.554.47.834.095-.383.189-.766.279-1.15.197-.843-1.099-1.203-1.305-.356zm-1.426 8.133l.296.23c.287.226.753.045.919-.243.202-.347.05-.704-.242-.925l-.296-.23c-.287-.225-.753-.045-.92.244-.201.347-.044.699.243.924z"/></g><g clip-path="url(#clip1_36943_309)" fill="#46A358"><path d="M35.3 44.737c.558-4.632-2.675-8.09-6.12-10.757-2.006-1.556-3.968-2.854-5.275-5.081-.668-1.143-1.308-2.432-1.682-3.699-.73-2.467.532-6.343 3.657-3.498 1.799 1.64 2.214 3.756 3.589 5.579.775 1.031 1.966 1.582 3.206.924 3.729-1.973.843-8.82.009-11.54-1.01-3.294-1.542-6.463.158-9.633.559-1.04 1.186-2.111 1.903-3.05.464-.604 1.055-1.257 1.718-1.675 1.37-.871 2.195-.871 3.71-.409 1.615.493 1.628.578 1.958 2.107.153.707.216 1.485.252 2.214a18.036 18.036 0 01-.37 4.614c-.6 2.876-2.326 5.419-2.705 8.34-.28 2.147-.086 8.97 3.504 8.33 4.207-.751 3.904-7.41 8.098-8.3 3.49-.742 5.195 3.041 3.716 5.637-.803 1.414-2.138 2.507-3.423 3.472-2.29 1.72-5.09 2.618-7.34 4.356-4.073 3.157-2.72 8.117-1.047 12.185.325.787 1.632.44 1.303-.356-1.127-2.742-2.543-6.099-1.019-8.98 1.411-2.666 5.136-3.6 7.54-5.174 3.246-2.124 7.904-6.125 5.153-10.335-2.3-3.525-6.754-2.347-8.856.605-.635.893-1.127 1.876-1.69 2.814-.258.426-.515.858-.817 1.258-.216.258-.433.51-.649.769-1.709.373-2.593-.076-2.651-1.356-1.714-3.592.36-7.273 1.524-10.584a19.13 19.13 0 001.05-7.686c-.126-1.8-.315-4.237-2.033-5.312-1.51-.947-3.833-.405-5.317.333-2.21 1.102-3.562 3.44-4.68 5.521-2.872 5.343.027 10.05 1.096 15.434.14.716.496 2.285.257 3.08-.73.659-1.461 1.312-2.196 1.97a5.888 5.888 0 01-.956-1.743c-.424-.929-.87-1.796-1.488-2.622-.974-1.307-2.814-3.454-4.694-3.348-1.827.107-2.9 2.01-3.094 3.597-.288 2.347.988 4.85 2.142 6.84 3.202 5.518 12.125 7.55 11.206 15.168-.1.84 1.253.836 1.352-.009z"/><path d="M46.987 22.573c.974-4.868-.866-9.317-1.25-14.123-.23-2.871 1.011-7.463 4.952-6.156 2.935.973 4.05 4.423 3.85 7.183-.144 2.018-1.127 7.94 2.814 7.388 3.382-.47 5.127-6.028 6.769-8.384 1.407-2.018 4.513-4.965 7.246-4.143 4.329 1.303 1.556 6.424-.437 8.438-3.36 3.391-6.94 6.392-9.902 10.17-1.719 2.192-3.207 5.793.604 6.775 1.465.378 2.877-.124 4.198-.72 1.064-.48 2.078-1.054 3.21-1.37 2.066-.577 4.46-.124 3.094 2.406-3.197 5.925-10.516 1.556-15.237 4.04-4.004 2.112-4.938 6.78-4.559 10.874.077.849 1.434.858 1.353 0-.266-2.854-.036-5.94 1.966-8.202 2.588-2.925 6.042-1.858 9.47-1.925 3.498-.066 8.003-1.738 8.73-5.592.793-4.223-4.086-3.405-6.589-2.387-1.105.449-2.137 1.147-3.292 1.476-.915.262-2.362.404-3.084-.445-.699-.827-.135-2.218.298-2.92 1.582-2.579 4.008-4.93 6.164-7.05 2.971-2.925 8.04-6.028 7.602-10.798-.333-3.65-3.751-4.988-6.903-3.619-1.894.823-3.459 2.13-4.694 3.761-1.615 2.13-2.476 5.054-4.401 6.93-.695.676-1.376 2.112-2.927.703-.69-.627-.482-2.299-.41-3.156.095-1.125.338-2.223.302-3.357-.059-1.916-.703-3.858-1.961-5.343-2.66-3.13-7.229-2.992-8.996.934-1.055 2.347-.59 5.032-.149 7.468.65 3.596 1.6 7.126.866 10.788-.167.84 1.136 1.2 1.303.356zm-.302 8.433a76.423 76.423 0 01-3.13 13.474c-.27.818 1.038 1.169 1.304.355a76.43 76.43 0 003.129-13.474c.117-.844-1.186-1.204-1.303-.355zM30.506 43.973c-.176-3.53-2.66-5.913-5.52-7.726-1.852-1.178-3.882-2.16-5.473-3.694-.686-.658-1.962-1.934-2.03-2.956-.23-3.41 3.996-.756 4.933.03.659.556 1.62-.386.956-.942-1.474-1.24-4.12-2.854-6.145-1.92-1.633.751-1.362 2.614-.736 3.956 2.638 5.704 12.315 6.357 12.662 13.252.04.853 1.398.858 1.353 0z"/><path d="M60.84 45.293c1.686-2.507 3.909-4.556 6.632-5.934 2.48-1.254 5.555-1.472 7.751-3.245 2.521-2.036 2.652-7.028-1.52-6.9-.87.027-.87 1.36 0 1.334 1.647.222 2.314 1.12 2.012 2.69a4.22 4.22 0 01-1.718 2.129c-.988.689-2.187 1.004-3.323 1.36-1.448.453-2.86.929-4.198 1.64-2.787 1.485-5.064 3.663-6.81 6.255-.482.715.69 1.382 1.173.671zm3.674-11.731c-5.731 1.067-7.846 6.69-9.203 11.611-.23.831 1.078 1.182 1.303.356 1.236-4.477 3.017-9.705 8.26-10.678.853-.164.492-1.45-.36-1.29zm-30.22-20.297c-.672-2.663.167-5.58 2.34-7.366a4.746 4.746 0 011.479-.867c1.502.316 2.2 1.107 2.097 2.374.027.738-.117 1.467-.293 2.178-.357 1.436-.983 2.8-1.448 4.205-1.195 3.619-2.913 9.535.316 12.616.31.298.793-.173.478-.471-2.832-2.699-1.38-7.886-.41-11.118.838-2.8 3.115-6.521 1.578-9.464-1.2-2.294-3.95-.431-5.118.911-1.727 1.987-2.309 4.659-1.673 7.18.108.417.757.24.654-.178zm14.294 10.797c.387-.849 1.172-2.049 2.223-2.191 1.6-.218 2.426 1.765 1.569 3.076-.807 1.236-2.345 2.098-3.67 2.627-2.206.876-3.684 2.085-5.285 3.814-.293.316.185.791.478.471.97-1.053 1.961-2.147 3.224-2.876 1.005-.582 2.173-.809 3.183-1.378 1.231-.698 3.224-2.205 3.369-3.725.117-1.227-1.195-2.65-2.422-2.725-1.479-.093-2.714 1.4-3.251 2.574-.18.382.406.724.582.333zm-25.288.774c.15-1.17.595-1.6 1.335-1.285a.91.91 0 01.658.28c.357.231.591.574.803.934.379.644.555 1.395.834 2.08.356.88.825 1.596 1.633 2.12.365.24.703-.337.342-.577-1.984-1.298-1.43-4.668-3.91-5.486-1.487-.489-2.984.782-2.276 2.267.184.391.766.054.581-.333zM47.533 7.584c-.352-1.92 1.7-3.45 3.269-2.05.865.774 1.2 2.196 1.204 3.308.009 1.507-.69 2.854-.393 4.365.081.422.735.244.654-.178-.374-1.898.7-3.716.217-5.685-.289-1.178-.875-2.49-2.11-2.934-2.228-.796-3.865 1.329-3.495 3.347.08.422.73.245.654-.173zm-.339 4.396c1.1 2.28 1.642 4.28 1.56 6.81-.013.431.663.427.677 0 .086-2.658-.5-4.76-1.65-7.143-.19-.387-.771-.05-.587.333zm17.541-1.907c.654-1.471 1.89-2.4 3.319-3.098a7.76 7.76 0 011.276-.525c1.907.64 2.39 1.525 1.447 2.663-.45.698-1.105 1.324-1.668 1.938a68.901 68.901 0 01-6.913 6.512c-.333.276.145.747.478.472a68.688 68.688 0 006.286-5.842c1.181-1.249 3.45-3.102 2.954-5.076-.988-3.912-6.936.751-7.765 2.623-.172.386.415.724.586.333zm-3.819 9.913c-2.16 1.565-3.472 3.845-3.72 6.472-.04.427.636.423.676 0 .226-2.374 1.434-4.485 3.386-5.899.348-.249.01-.831-.342-.573zm4.279 11.122c.442-.262.884-.538 1.348-.764a4.961 4.961 0 011.11-.44c.725-.298.969.257.725 1.666-.478.93-3.066.965-3.868.916-2.007-.115-3.896-.658-5.876-.058-.415.125-.239.77.18.645 2.377-.725 4.69.329 7.089.067 1.303-.147 3.147-.738 3.797-1.983.36-.693.275-1.61-.514-1.987-1.295-.618-3.315.751-4.334 1.36-.37.227-.031.805.343.578zM55.14 33.589c-3.518 2.814-4.798 7.081-5.154 11.384-.036.427.64.427.676 0 .343-4.139 1.574-8.21 4.956-10.913.338-.271-.145-.738-.479-.471zm-15.138 1.133c-1.046 1.787-1.014 3.734-.784 5.734.193 1.68.414 3.33 1.591 4.637.289.32.767-.151.478-.471-1.154-1.28-1.298-3.059-1.452-4.694-.162-1.703-.14-3.352.753-4.873.217-.368-.365-.702-.586-.333zM21.343 30.33c-1.957.027-1.181 2.058-.135 2.787 1.308.912 2.796 1.52 4.185 2.29 1.636.907 2.295 2.436 3.553 3.712.302.306.78-.165.478-.472-1.25-1.267-1.854-2.782-3.463-3.69-.812-.457-1.664-.844-2.48-1.284a21.572 21.572 0 01-1.254-.707l-.491-.298c-.808-.302-.934-.858-.388-1.667.428-.009.428-.675-.005-.67z"/><path d="M72.238 33.402c.023.89-.392 1.374-1.253 1.458-.415.165-.825.325-1.24.489l-1.858.734-4.333 1.711c-.402.156-.226.805.18.645 1.65-.654 3.3-1.303 4.951-1.956 1.222-.485 2.782-.832 3.869-1.587.942-.658.97-2.023-.32-2.16-.429-.05-.424.622.004.666zm-10.236 5.316a18.285 18.285 0 00-4.252 5.921c-.175.387.406.73.587.338a17.771 17.771 0 014.148-5.783c.311-.298-.167-.769-.483-.476zm-31.451 2.917a6.174 6.174 0 011.01 2.467c.072.422.726.244.654-.178a6.668 6.668 0 00-1.078-2.627c-.243-.351-.83-.018-.586.338z"/></g><defs><clipPath id="clip0_36943_309"><path fill="#fff" transform="translate(19 45)" d="M0 0h55v48H0z"/></clipPath><clipPath id="clip1_36943_309"><path fill="#fff" transform="translate(16)" d="M0 0h61v46H0z"/></clipPath></defs></svg>