<svg width="21" height="20" fill="none" xmlns="http://www.w3.org/2000/svg"><path d="M19.334 1.957C18.247.695 16.755 0 15.134 0c-1.213 0-2.323.41-3.3 1.22A7.03 7.03 0 0010.5 2.71a7.034 7.034 0 00-1.334-1.49C8.189.41 7.079 0 5.866 0c-1.621 0-3.113.695-4.2 1.957C.592 3.205 0 4.91 0 6.756c0 1.901.662 3.641 2.083 5.477 1.271 1.642 3.098 3.308 5.214 5.238.722.66 1.54 1.407 2.391 2.202.225.211.513.327.812.327.299 0 .587-.116.812-.326.85-.796 1.67-1.544 2.392-2.203 2.115-1.93 3.942-3.596 5.213-5.238C20.338 10.397 21 8.657 21 6.756c0-1.847-.592-3.551-1.666-4.799z" fill="#46A358"/></svg>