<svg width="20" height="20" fill="none" xmlns="http://www.w3.org/2000/svg"><path d="M16.434 17.605C14.699 19.07 12.449 20 10 20c-3.645 0-6.844-2.008-8.578-4.938l.65-2.992 2.877-.535c.668 2.156 2.684 3.738 5.051 3.738a5.198 5.198 0 003.094-1.007l2.765.421.575 2.918z" fill="#59C36A"/><path d="M16.434 17.605l-.575-2.918-2.765-.421A5.197 5.197 0 0110 15.273V20c2.45 0 4.7-.93 6.434-2.395z" fill="#00A66C"/><path d="M4.727 10c0 .539.082 1.055.222 1.535l-3.527 3.527C.543 13.587 0 11.852 0 10c0-1.852.543-3.586 1.422-5.063l2.83.488.697 3.04A5.46 5.46 0 004.727 10z" fill="#FFDA2D"/><path d="M20 10c0 3.047-1.41 5.777-3.566 7.605l-3.34-3.34a5.186 5.186 0 001.629-1.921H10a.58.58 0 01-.586-.586V8.242A.58.58 0 0110 7.656h9.25c.281 0 .527.2.574.48.117.61.176 1.243.176 1.864z" fill="#4086F4"/><path d="M14.723 12.344a5.186 5.186 0 01-1.63 1.922l3.34 3.34C18.59 15.776 20 13.046 20 10c0-.621-.059-1.254-.176-1.863a.579.579 0 00-.574-.48H10v4.687h4.723z" fill="#4175DF"/><path d="M16.598 2.793a.591.591 0 01-.164.434l-2.508 2.496a.574.574 0 01-.762.058A5.242 5.242 0 0010 4.727c-2.367 0-4.383 1.582-5.05 3.738L1.421 4.938C3.156 2.007 6.355 0 10 0c2.332 0 4.605.86 6.387 2.36a.61.61 0 01.21.433z" fill="#FF641A"/><path d="M13.164 5.781a.574.574 0 00.762-.058l2.508-2.496a.59.59 0 00.164-.434.616.616 0 00-.211-.434C14.605.86 12.332 0 10 0v4.727c1.148 0 2.238.363 3.164 1.054z" fill="#F03800"/></svg>