<svg width="150" height="35" fill="none" xmlns="http://www.w3.org/2000/svg"><g clip-path="url(#clip0_2_71)" fill="#46A358"><path d="M17.15 0C7.677 0 0 7.677 0 17.15c0 8.87 6.735 16.168 15.371 17.057-.521-4.294-.327-7.807.336-10.694-.372-1.79-1.217-4.443-3.134-6.327 0 0 1.262 1.892 1.945 4.435 0 .005.004.009.004.013a13.036 13.036 0 01.364 1.908c-9.69-1.189-11.757-9.885-11.53-13.164 10.309.57 12.42 7.451 12.727 11.72 3.376-11.057 14.101-11.696 14.987-11.72.384 8.498-5.92 15.125-13.455 15.703.049-.23.105-.461.162-.688.016-.068.036-.133.056-.202.045-.161.09-.323.142-.485l.064-.21c.057-.178.118-.352.178-.53.017-.04.029-.08.045-.121.077-.21.157-.412.238-.614.008-.017.012-.037.02-.053h.005c1.932-4.674 5.498-7.734 5.498-7.734-6.998 4.043-8.179 14.554-8.365 18.78.493.044.987.076 1.492.076 9.473 0 17.15-7.677 17.15-17.15C34.3 7.677 26.623 0 17.15 0zm29.554 10.745c2.268 0 4.12.975 5.32 2.754l-2.248 1.912c-.804-1.124-1.779-1.706-3.129-1.706-2.078 0-3.372 1.366-3.372 3.448 0 2.119 1.367 3.542 3.562 3.542 1.18 0 2.119-.412 2.717-1.104v-.582h-2.887v-2.773h6.11v3.897c-.583 1.03-1.408 1.856-2.475 2.49-1.067.619-2.268.938-3.598.938-3.712.057-6.78-2.83-6.728-6.408-.056-3.557 3.016-6.464 6.728-6.408zm15.254 12.587l-2.79-3.841h-1.33v3.84h-3.222V10.969h4.851c2.753 0 4.779 1.686 4.779 4.254 0 1.516-.732 2.773-1.949 3.52l3.259 4.59h-3.598zm-4.124-6.651h1.65c.897 0 1.479-.582 1.479-1.46 0-.877-.582-1.443-1.48-1.443h-1.65v2.903zm8.999-5.713h8.58v2.903h-5.358v1.706h3.821v2.697h-3.82v2.155h5.583v2.903h-8.806V10.968zm10.811 0h8.58v2.903h-5.358v1.706h3.82v2.697h-3.82v2.155h5.584v2.903h-8.806V10.968zm21.776 0v12.59h-1.032l-6.707-6.501v6.274h-3.222v-12.59h1.03l6.708 6.409v-6.182h3.222zm3.844 8.167c.732.974 1.5 1.593 2.753 1.593.845 0 1.274-.3 1.274-.902 0-.541-.283-.711-1.258-1.144l-1.273-.562c-2.042-.901-3.129-2.062-3.129-3.727 0-2.192 1.799-3.655 4.326-3.655 2.041 0 3.485.974 4.233 2.49l-2.155 1.65c-.599-.898-1.161-1.31-2.042-1.31-.675 0-1.104.263-1.104.788 0 .45.263.696 1.068 1.011l1.423.598c2.155.902 3.165 1.986 3.165 3.728 0 2.397-1.969 3.86-4.536 3.86-2.227 0-4.027-1.066-4.928-2.773l2.183-1.645zm9.129-8.167h3.222v4.516h4.516v-4.516h3.222v12.364h-3.222v-4.945h-4.516v4.945h-3.222V10.968zm19.45-.226c3.598-.077 6.764 2.866 6.687 6.408.073 3.578-3.089 6.465-6.687 6.408-3.614.056-6.727-2.83-6.65-6.408-.077-3.542 3.036-6.48 6.65-6.408zm.016 2.96c-1.985 0-3.371 1.406-3.371 3.448 0 1.03.319 1.872.938 2.51.618.62 1.443.939 2.433.939 1.913 0 3.372-1.387 3.372-3.45.004-2.04-1.459-3.448-3.372-3.448zm8.515-2.734h4.852c2.753 0 4.778 1.686 4.778 4.254 0 2.53-2.078 4.269-4.778 4.269h-1.63v3.84h-3.222V10.969zm4.868 5.713c.897 0 1.479-.582 1.479-1.46 0-.877-.582-1.443-1.479-1.443h-1.65v2.903h1.65z"/></g><defs><clipPath id="clip0_2_71"><path fill="#fff" d="M0 0h150v34.3H0z"/></clipPath></defs></svg>