<svg aria-hidden="true" style="position:absolute;width:0;height:0" xmlns="http://www.w3.org/2000/svg" overflow="hidden"><defs><symbol id="icon-arrow-more" viewBox="0 0 37 32"><path stroke-linejoin="round" stroke-linecap="round" stroke-width="4" d="M34.167 15.451h-30M22.066 3.402s12.1 6.522 12.1 12.046c0 5.528-12.1 12.052-12.1 12.052"/></symbol><symbol id="icon-blog-arrow-right" viewBox="0 0 32 32"><path d="M5.333 15.634a1 1 0 01.864-.991l.136-.009h20a1 1 0 01.136 1.991l-.136.009h-20a1 1 0 01-1-1z"/><path d="M17.561 8.31a1 1 0 011.299-1.514l.112.097 8.067 8.032a1 1 0 01.097 1.305l-.097.112-8.067 8.033a1 1 0 01-1.508-1.305l.097-.112 7.355-7.325-7.355-7.323z"/></symbol><symbol id="icon-cart-desktop" viewBox="0 0 32 32"><path d="M21.961 26.56h-9.299c-3.97 0-7.2-3.23-7.2-7.2v-7.38c0-3.691-1.839-7.107-4.92-9.138A1.2 1.2 0 111.863.839a13.334 13.334 0 014.206 4.45c.221.247 1.999 2.132 4.913 2.132H24.8c3.77-.071 6.721 3.713 5.735 7.352l-1.591 6.34a7.19 7.19 0 01-6.984 5.448zM7.559 9.142c.199.922.303 1.872.303 2.838v7.38c0 2.647 2.153 4.8 4.8 4.8h9.299a4.795 4.795 0 004.656-3.632l1.591-6.34c.586-2.162-1.168-4.41-3.407-4.368H10.983a8.943 8.943 0 01-3.423-.678zm4.502 20.718a1.5 1.5 0 00-1.5-1.5c-1.99.079-1.989 2.921 0 3a1.5 1.5 0 001.5-1.5zm11.94 0a1.5 1.5 0 00-1.5-1.5c-1.99.079-1.989 2.921 0 3a1.5 1.5 0 001.5-1.5zM26 13.42a1.2 1.2 0 00-1.2-1.2H11.462c-1.592.063-1.591 2.337 0 2.4H24.8a1.2 1.2 0 001.2-1.2z"/></symbol><symbol id="icon-cart-mobile" viewBox="0 0 32 32"><path d="M29.333 10.882l-1.51 9.562c-.274 1.885-1.784 3.098-3.706 3.098H10.94c-1.784 0-3.431-1.347-3.706-3.098L5.587 9.266l-.412-3.098c-.137-.808-.824-1.347-1.784-1.347H2.43c-.549 0-1.098-.539-1.098-1.077s.549-1.077 1.098-1.077h.961c1.922 0 3.569 1.347 3.706 3.232l.274 2.155h19.49c.686 0 1.372.269 1.784.808.549.539.686 1.347.686 2.02zm-4.941 18.451c.758 0 1.373-.603 1.373-1.347s-.615-1.347-1.373-1.347-1.372.603-1.372 1.347.615 1.347 1.372 1.347zm-13.725 0c.758 0 1.373-.603 1.373-1.347s-.614-1.347-1.373-1.347c-.758 0-1.373.603-1.373 1.347s.614 1.347 1.373 1.347z"/></symbol><symbol id="icon-favourite" viewBox="0 0 32 32"><path d="M16 30.22c-.456 0-.895-.165-1.237-.465a374.562 374.562 0 00-3.639-3.13l-.006-.005c-3.224-2.747-6.008-5.12-7.945-7.457-2.165-2.613-3.174-5.09-3.174-7.796 0-2.629.902-5.055 2.539-6.831C4.195 2.739 6.467 1.75 8.939 1.75c1.847 0 3.539.584 5.028 1.736A10.288 10.288 0 0116 5.609c.6-.83 1.281-1.541 2.033-2.123 1.489-1.152 3.181-1.736 5.028-1.736 2.471 0 4.744.99 6.401 2.786C31.099 6.312 32 8.737 32 11.367c0 2.706-1.008 5.184-3.174 7.796-1.937 2.337-4.721 4.71-7.944 7.457-1.102.939-2.35 2.002-3.646 3.136a1.878 1.878 0 01-1.237.464zM8.939 3.624c-1.942 0-3.725.775-5.023 2.182-1.317 1.428-2.042 3.403-2.042 5.56 0 2.276.846 4.312 2.743 6.6 1.833 2.212 4.56 4.536 7.717 7.227l.006.005c1.104.941 2.355 2.007 3.657 3.146a430.966 430.966 0 013.669-3.151c3.157-2.691 5.884-5.014 7.717-7.226 1.896-2.289 2.742-4.324 2.742-6.6 0-2.157-.725-4.132-2.042-5.56-1.297-1.407-3.081-2.182-5.023-2.182-1.422 0-2.728.452-3.881 1.344-1.028.795-1.744 1.8-2.163 2.503-.216.362-.596.577-1.016.577s-.801-.216-1.016-.577c-.419-.703-1.135-1.708-2.163-2.503-1.153-.892-2.459-1.344-3.881-1.344z"/></symbol><symbol id="icon-favourites-mobile" viewBox="0 0 32 32"><path d="M29.461 4.386C27.805 2.589 25.532 1.6 23.06 1.6c-1.847 0-3.539.584-5.028 1.736a10.29 10.29 0 00-2.033 2.123c-.6-.83-1.281-1.541-2.033-2.123C12.477 2.184 10.785 1.6 8.938 1.6c-2.471 0-4.744.99-6.401 2.786C.9 6.162-.001 8.587-.001 11.217c0 2.706 1.009 5.184 3.174 7.796 1.937 2.337 4.721 4.71 7.945 7.457 1.101.938 2.349 2.002 3.644 3.135a1.878 1.878 0 002.474.001c1.296-1.133 2.544-2.197 3.645-3.136 3.223-2.747 6.007-5.119 7.944-7.456 2.165-2.613 3.174-5.09 3.174-7.796 0-2.629-.902-5.055-2.539-6.831z"/></symbol><symbol id="icon-home-mobile" viewBox="0 0 32 32"><path d="M12.18 27.698v-4.077a1.89 1.89 0 011.898-1.884h3.832c.503 0 .986.199 1.342.552s.556.833.556 1.332v4.077c-.003.433.168.849.475 1.156s.725.48 1.161.48h2.615c1.221.003 2.393-.476 3.258-1.332s1.35-2.019 1.35-3.231V13.156c0-.979-.437-1.908-1.194-2.536l-8.894-7.052a4.131 4.131 0 00-5.265.095L4.623 10.62a3.298 3.298 0 00-1.289 2.536v11.603c0 2.527 2.063 4.575 4.608 4.575h2.555c.905 0 1.641-.725 1.647-1.624l.036-.012z"/></symbol><symbol id="icon-login-desktop" viewBox="0 0 32 32"><path stroke-linejoin="round" stroke-linecap="round" stroke-width="2.4" d="M29.056 16.161H13.001m12.153-3.888l3.904 3.888-3.904 3.888m-3.339-9.876c-.44-4.773-2.227-6.507-9.333-6.507-9.468 0-9.468 3.08-9.468 12.333s0 12.333 9.468 12.333c7.107 0 8.893-1.733 9.333-6.507"/></symbol><symbol id="icon-search-desktop" viewBox="0 0 32 32"><path d="M23.316 25.605c-6.395 5.094-15.335 3.684-20.071-2.158-4.57-5.64-4.285-13.777.674-18.927C9.042-.801 17.097-1.511 22.935 2.854a14.235 14.235 0 014.671 5.96c1.023 2.422 1.334 4.941.979 7.539-.354 2.586-1.386 4.891-3.066 7.042.136.089.281.153.385.257 1.847 1.838 3.687 3.683 5.534 5.521.438.436.656.943.526 1.555a1.59 1.59 0 01-2.636.851c-.436-.391-.836-.821-1.25-1.235l-4.55-4.548c-.063-.06-.129-.116-.211-.192zm2.221-11.226c.016-6.176-4.972-11.169-11.165-11.178A11.144 11.144 0 003.185 14.317c-.027 6.191 4.951 11.198 11.163 11.227 6.151.029 11.173-4.983 11.189-11.165z"/></symbol><symbol id="icon-search-mobile" viewBox="0 0 32 32"><path d="M15.248 3.59C8.808 3.59 3.59 8.804 3.59 15.233s5.218 11.643 11.658 11.643c3.213 0 6.12-1.296 8.23-3.396a11.595 11.595 0 003.428-8.247c0-6.429-5.218-11.643-11.658-11.643zM1.333 15.233c0-7.678 6.231-13.9 13.915-13.9s13.914 6.222 13.914 13.9a13.84 13.84 0 01-3.324 9.016l4.497 4.492a1.129 1.129 0 01-1.595 1.597l-4.501-4.496a13.87 13.87 0 01-8.992 3.292c-7.684 0-13.915-6.222-13.915-13.9z"/></symbol><symbol id="icon-social-1" viewBox="0 0 32 32"><path d="M12 10.667H8V16h4v16h6.667V16h4.8L24 10.667h-5.333V8.4c0-1.2.267-1.733 1.467-1.733h3.867V0h-5.067c-4.8 0-6.933 2.133-6.933 6.133v4.533z"/></symbol><symbol id="icon-social-2" viewBox="0 0 32 32"><path d="M16 2.933c4.267 0 4.8 0 6.533.133 4.4.133 6.4 2.267 6.533 6.533.133 1.733.133 2.133.133 6.4s0 4.8-.133 6.4c-.133 4.267-2.267 6.4-6.533 6.533-1.733.133-2.133.133-6.533.133-4.267 0-4.8 0-6.4-.133-4.4-.133-6.4-2.267-6.533-6.533-.133-1.733-.133-2.133-.133-6.4s0-4.8.133-6.4C3.2 5.332 5.334 3.199 9.6 3.066c1.6-.133 2.133-.133 6.4-.133zM16 0c-4.4 0-4.933 0-6.533.133C3.6.4.4 3.6.134 9.466c-.133 1.6-.133 2.133-.133 6.533s0 4.933.133 6.533c.267 5.867 3.467 9.067 9.333 9.333 1.6.133 2.133.133 6.533.133s4.933 0 6.533-.133c5.867-.267 9.067-3.467 9.333-9.333.133-1.6.133-2.133.133-6.533s0-4.933-.133-6.533C31.599 3.599 28.399.399 22.533.133 20.933 0 20.4 0 16 0zm0 7.733c-4.533 0-8.267 3.733-8.267 8.267s3.733 8.267 8.267 8.267c4.533 0 8.267-3.733 8.267-8.267S20.534 7.733 16 7.733zm0 13.6c-2.933 0-5.333-2.4-5.333-5.333s2.4-5.333 5.333-5.333c2.933 0 5.333 2.4 5.333 5.333s-2.4 5.333-5.333 5.333zM24.533 5.6c-1.067 0-1.867.8-1.867 1.867s.8 1.867 1.867 1.867 1.867-.8 1.867-1.867S25.6 5.6 24.533 5.6z"/></symbol><symbol id="icon-social-3" viewBox="0 0 32 32"><path d="M10.064 28.007c12.076 0 18.68-10.005 18.68-18.68 0-.284-.006-.567-.019-.849A13.363 13.363 0 0032 5.079a13.06 13.06 0 01-3.77 1.033 6.592 6.592 0 002.887-3.632 13.177 13.177 0 01-4.169 1.594A6.562 6.562 0 0022.155 2a6.567 6.567 0 00-6.397 8.062A18.64 18.64 0 012.226 3.203a6.535 6.535 0 00-.889 3.3 6.56 6.56 0 002.922 5.465 6.52 6.52 0 01-2.974-.821l-.001.084a6.566 6.566 0 005.267 6.436 6.585 6.585 0 01-2.965.113 6.575 6.575 0 006.133 4.56 13.172 13.172 0 01-8.154 2.81c-.53 0-1.052-.03-1.566-.091a18.584 18.584 0 0010.064 2.949z"/></symbol><symbol id="icon-social-4" viewBox="0 0 32 32"><path d="M6.667 3.333c0 1.867-1.467 3.333-3.333 3.333S.001 5.199.001 3.333C.001 1.466 1.468 0 3.334 0s3.333 1.467 3.333 3.333zm0 6H0v21.333h6.667V9.333zm10.666 0h-6.667v21.333h6.667v-11.2c0-6.267 8-6.8 8 0v11.2H32V17.199c0-10.533-11.867-10.133-14.667-4.933V9.333z"/></symbol><symbol id="icon-social-5" viewBox="0 0 32 32"><path d="M25.542 11.671l.005.001-.002-.001-.002-.001zm-18.259-.123c4.367-.271 12.503-.271 16.871 0l.001.013c.105 1.066.148 2.488.148 4.471 0 1.959-.041 3.381-.145 4.456-4.46.177-12.417.177-16.878 0-.104-1.064-.146-2.482-.146-4.456 0-1.984.042-3.405.148-4.471l.001-.013zm18.388 8.85l-.009.002.009-.002zm-19.78-.006l.005.001-.005-.001zM0 16.032c0 8.121.655 11.134 5.763 11.527 4.716.262 15.195.262 19.91 0 5.109-.262 5.764-3.406 5.764-11.527s-.655-11.134-5.764-11.527c-4.716-.393-15.195-.393-19.91 0C.654 4.898 0 7.911 0 16.032zm5.891-4.359l.005-.001-.005.001zm10.584 7.256c-2.153 1.077-4.686-.489-4.686-2.896s2.533-3.973 4.686-2.896c2.387 1.193 2.387 4.599 0 5.793z"/></symbol><symbol id="icon-user-mobile" viewBox="0 0 32 32"><path d="M16 15.728c3.625 0 6.564-2.924 6.564-6.531S19.625 2.666 16 2.666 9.436 5.59 9.436 9.197s2.939 6.531 6.564 6.531zm3.419 2.721h-6.838c-3.966 0-7.248 3.265-7.248 7.211 0 .952.41 1.769 1.231 2.177 1.231.68 3.966 1.497 9.436 1.497s8.205-.816 9.436-1.497a2.572 2.572 0 001.231-2.177c0-4.082-3.282-7.211-7.248-7.211z"/></symbol><symbol id="icon-eye" viewBox="0 0 20 20"><path d="M10 4.4C3.439 4.4 0 9.232 0 10c0 .766 3.439 5.6 10 5.6s10-4.834 10-5.6c0-.768-3.44-5.6-10-5.6zm0 9.907c-2.455 0-4.445-1.928-4.445-4.307S7.545 5.691 10 5.691s4.444 1.93 4.444 4.309-1.989 4.307-4.444 4.307zM10 10c-.407-.447.663-2.154 0-2.154-1.228 0-2.223.965-2.223 2.154s.995 2.154 2.223 2.154c1.227 0 2.223-.965 2.223-2.154 0-.547-1.877.379-2.223 0z"/></symbol><symbol id="icon-location-pin" viewBox="0 0 20 20"><path d="M10 2.009c-2.762 0-5 2.229-5 4.99 0 4.774 5 11 5 11s5-6.227 5-11c0-2.76-2.238-4.99-5-4.99zm0 7.751a2.7 2.7 0 110-5.4 2.7 2.7 0 010 5.4z"/></symbol><symbol id="icon-mail" viewBox="0 0 20 20"><path d="M1.574 5.286l7.5 4.029c.252.135.578.199.906.199.328 0 .654-.064.906-.199l7.5-4.029c.489-.263.951-1.286.054-1.286H1.521c-.897 0-.435 1.023.053 1.286zm17.039 2.203l-7.727 4.027c-.34.178-.578.199-.906.199s-.566-.021-.906-.199-7.133-3.739-7.688-4.028C.996 7.284 1 7.523 1 7.707V15c0 .42.566 1 1 1h16c.434 0 1-.58 1-1V7.708c0-.184.004-.423-.387-.219z"/></symbol><symbol id="icon-phone" viewBox="0 0 20 20"><path d="M11.229 11.229c-1.583 1.582-3.417 3.096-4.142 2.371-1.037-1.037-1.677-1.941-3.965-.102-2.287 1.838-.53 3.064.475 4.068 1.16 1.16 5.484.062 9.758-4.211 4.273-4.274 5.368-8.598 4.207-9.758-1.005-1.006-2.225-2.762-4.063-.475s-.936 2.927.103 3.965c.722.725-.791 2.559-2.373 4.142z"/></symbol></defs></svg>