<svg xmlns="http://www.w3.org/2000/svg" width="32" height="32"><path d="M29.333 10.882l-1.51 9.562c-.274 1.885-1.784 3.098-3.706 3.098H10.94c-1.784 0-3.431-1.347-3.706-3.098L5.587 9.266l-.412-3.098c-.137-.808-.824-1.347-1.784-1.347H2.43c-.549 0-1.098-.539-1.098-1.077s.549-1.077 1.098-1.077h.961c1.922 0 3.569 1.347 3.706 3.232l.274 2.155h19.49c.686 0 1.372.269 1.784.808.549.539.686 1.347.686 2.02zm-4.941 18.451c.758 0 1.373-.603 1.373-1.347s-.615-1.347-1.373-1.347-1.372.603-1.372 1.347.615 1.347 1.372 1.347zm-13.725 0c.758 0 1.373-.603 1.373-1.347s-.614-1.347-1.373-1.347c-.758 0-1.373.603-1.373 1.347s.614 1.347 1.373 1.347z"/></svg>