<svg xmlns="http://www.w3.org/2000/svg" width="32" height="32"><path d="M21.961 26.56h-9.299c-3.97 0-7.2-3.23-7.2-7.2v-7.38c0-3.691-1.839-7.107-4.92-9.138A1.2 1.2 0 111.863.839a13.334 13.334 0 014.206 4.45c.221.247 1.999 2.132 4.913 2.132H24.8c3.77-.071 6.721 3.713 5.735 7.352l-1.591 6.34a7.19 7.19 0 01-6.984 5.448zM7.559 9.142c.199.922.303 1.872.303 2.838v7.38c0 2.647 2.153 4.8 4.8 4.8h9.299a4.795 4.795 0 004.656-3.632l1.591-6.34c.586-2.162-1.168-4.41-3.407-4.368H10.983a8.943 8.943 0 01-3.423-.678zm4.502 20.718a1.5 1.5 0 00-1.5-1.5c-1.99.079-1.989 2.921 0 3a1.5 1.5 0 001.5-1.5zm11.94 0a1.5 1.5 0 00-1.5-1.5c-1.99.079-1.989 2.921 0 3a1.5 1.5 0 001.5-1.5zM26 13.42a1.2 1.2 0 00-1.2-1.2H11.462c-1.592.063-1.591 2.337 0 2.4H24.8a1.2 1.2 0 001.2-1.2z"/></svg>