<svg xmlns="http://www.w3.org/2000/svg" width="32" height="32"><path d="M29.461 4.386C27.805 2.589 25.532 1.6 23.06 1.6c-1.847 0-3.539.584-5.028 1.736a10.29 10.29 0 00-2.033 2.123c-.6-.83-1.281-1.541-2.033-2.123C12.477 2.184 10.785 1.6 8.938 1.6c-2.471 0-4.744.99-6.401 2.786C.9 6.162-.001 8.587-.001 11.217c0 2.706 1.009 5.184 3.174 7.796 1.937 2.337 4.721 4.71 7.945 7.457 1.101.938 2.349 2.002 3.644 3.135a1.878 1.878 0 002.474.001c1.296-1.133 2.544-2.197 3.645-3.136 3.223-2.747 6.007-5.119 7.944-7.456 2.165-2.613 3.174-5.09 3.174-7.796 0-2.629-.902-5.055-2.539-6.831z"/></svg>