<svg xmlns="http://www.w3.org/2000/svg" width="32" height="32"><path d="M23.316 25.605c-6.395 5.094-15.335 3.684-20.071-2.158-4.57-5.64-4.285-13.777.674-18.927C9.042-.801 17.097-1.511 22.935 2.854a14.235 14.235 0 014.671 5.96c1.023 2.422 1.334 4.941.979 7.539-.354 2.586-1.386 4.891-3.066 7.042.136.089.281.153.385.257 1.847 1.838 3.687 3.683 5.534 5.521.438.436.656.943.526 1.555a1.59 1.59 0 01-2.636.851c-.436-.391-.836-.821-1.25-1.235l-4.55-4.548c-.063-.06-.129-.116-.211-.192zm2.221-11.226c.016-6.176-4.972-11.169-11.165-11.178A11.144 11.144 0 003.185 14.317c-.027 6.191 4.951 11.198 11.163 11.227 6.151.029 11.173-4.983 11.189-11.165z"/></svg>