<svg xmlns="http://www.w3.org/2000/svg" width="32" height="32"><path d="M16 2.933c4.267 0 4.8 0 6.533.133 4.4.133 6.4 2.267 6.533 6.533.133 1.733.133 2.133.133 6.4s0 4.8-.133 6.4c-.133 4.267-2.267 6.4-6.533 6.533-1.733.133-2.133.133-6.533.133-4.267 0-4.8 0-6.4-.133-4.4-.133-6.4-2.267-6.533-6.533-.133-1.733-.133-2.133-.133-6.4s0-4.8.133-6.4C3.2 5.332 5.334 3.199 9.6 3.066c1.6-.133 2.133-.133 6.4-.133zM16 0c-4.4 0-4.933 0-6.533.133C3.6.4.4 3.6.134 9.466c-.133 1.6-.133 2.133-.133 6.533s0 4.933.133 6.533c.267 5.867 3.467 9.067 9.333 9.333 1.6.133 2.133.133 6.533.133s4.933 0 6.533-.133c5.867-.267 9.067-3.467 9.333-9.333.133-1.6.133-2.133.133-6.533s0-4.933-.133-6.533C31.599 3.599 28.399.399 22.533.133 20.933 0 20.4 0 16 0zm0 7.733c-4.533 0-8.267 3.733-8.267 8.267s3.733 8.267 8.267 8.267c4.533 0 8.267-3.733 8.267-8.267S20.534 7.733 16 7.733zm0 13.6c-2.933 0-5.333-2.4-5.333-5.333s2.4-5.333 5.333-5.333c2.933 0 5.333 2.4 5.333 5.333s-2.4 5.333-5.333 5.333zM24.533 5.6c-1.067 0-1.867.8-1.867 1.867s.8 1.867 1.867 1.867 1.867-.8 1.867-1.867S25.6 5.6 24.533 5.6z"/></svg>