<svg xmlns="http://www.w3.org/2000/svg" width="32" height="32"><path d="M10.064 28.007c12.076 0 18.68-10.005 18.68-18.68 0-.284-.006-.567-.019-.849A13.363 13.363 0 0032 5.079a13.06 13.06 0 01-3.77 1.033 6.592 6.592 0 002.887-3.632 13.177 13.177 0 01-4.169 1.594A6.562 6.562 0 0022.155 2a6.567 6.567 0 00-6.397 8.062A18.64 18.64 0 012.226 3.203a6.535 6.535 0 00-.889 3.3 6.56 6.56 0 002.922 5.465 6.52 6.52 0 01-2.974-.821l-.001.084a6.566 6.566 0 005.267 6.436 6.585 6.585 0 01-2.965.113 6.575 6.575 0 006.133 4.56 13.172 13.172 0 01-8.154 2.81c-.53 0-1.052-.03-1.566-.091a18.584 18.584 0 0010.064 2.949z"/></svg>