<svg xmlns="http://www.w3.org/2000/svg" width="32" height="32"><path d="M25.542 11.671l.005.001-.002-.001-.002-.001zm-18.259-.123c4.367-.271 12.503-.271 16.871 0l.001.013c.105 1.066.148 2.488.148 4.471 0 1.959-.041 3.381-.145 4.456-4.46.177-12.417.177-16.878 0-.104-1.064-.146-2.482-.146-4.456 0-1.984.042-3.405.148-4.471l.001-.013zm18.388 8.85l-.009.002.009-.002zm-19.78-.006l.005.001-.005-.001zM0 16.032c0 8.121.655 11.134 5.763 11.527 4.716.262 15.195.262 19.91 0 5.109-.262 5.764-3.406 5.764-11.527s-.655-11.134-5.764-11.527c-4.716-.393-15.195-.393-19.91 0C.654 4.898 0 7.911 0 16.032zm5.891-4.359l.005-.001-.005.001zm10.584 7.256c-2.153 1.077-4.686-.489-4.686-2.896s2.533-3.973 4.686-2.896c2.387 1.193 2.387 4.599 0 5.793z"/></svg>